# xmcd
#
# Track frame offsets:
#	150
#	16234
#	28475
#	45262
#	59337
#	76790
#	92302
#	110310
#	126970
#	139810
#	154550
#	169172
#
# Disc length: 2457 seconds
#
# Revision: 4
# Processed by: cddbd v1.5.2PL0 Copyright (c) Steve Scherf et al.
# Submitted via: EZCDAudioConverter 2.4.0.1
#
DISCID=8b09970c
DTITLE=Chitãozinho and Xororó - (Sertanejo) Chitãozinho and Xororó
DYEAR=1986
DGENRE=Sertanejo
TTITLE0=Coração Quebrado
TTITLE1=O Dinheiro Compra Tudo
TTITLE2=Caro Amigo
TTITLE3=Amigo do Peito
TTITLE4=Depois de Mim
TTITLE5=Amigo Amante
TTITLE6=Não Desligue o Rádio
TTITLE7=Terra Tombada
TTITLE8=Sob Medida
TTITLE9=Queixas
TTITLE10=Enchente da Paixão
TTITLE11=Se Deus me Ouvisse
EXTD=
EXTT0=
EXTT1=
EXTT2=
EXTT3=
EXTT4=
EXTT5=
EXTT6=
EXTT7=
EXTT8=
EXTT9=
EXTT10=
EXTT11=
PLAYORDER=
